<svg xmlns="http://www.w3.org/2000/svg" width="20" height="18.047"><g fill="#2995D9"><path data-name="Caminho 55" d="M20 5.625v-2.3a1.76 1.76 0 00-1.758-1.758h-.234v2.148a.586.586 0 01-1.172 0V.586a.586.586 0 10-1.172 0v.977h-3.906v2.148a.586.586 0 01-1.172 0V.586a.586.586 0 00-1.172 0v.977H5.508v2.148a.586.586 0 01-1.172 0V.586a.586.586 0 10-1.172 0v.977H1.758A1.76 1.76 0 000 3.32v2.3z"/><path data-name="Caminho 56" d="M0 6.797v9.492a1.76 1.76 0 001.758 1.758h16.484A1.76 1.76 0 0020 16.289V6.797zm5.625 8.125h-1.25a.586.586 0 010-1.172h1.25a.586.586 0 010 1.172zm0-2.5h-1.25a.586.586 0 010-1.172h1.25a.586.586 0 010 1.172zm0-2.5h-1.25a.586.586 0 010-1.172h1.25a.586.586 0 010 1.172zm5 5h-1.25a.586.586 0 010-1.172h1.25a.586.586 0 010 1.172zm0-2.5h-1.25a.586.586 0 010-1.172h1.25a.586.586 0 010 1.172zm0-2.5h-1.25a.586.586 0 010-1.172h1.25a.586.586 0 010 1.172zm5 5h-1.25a.586.586 0 010-1.172h1.25a.586.586 0 010 1.172zm0-2.5h-1.25a.586.586 0 010-1.172h1.25a.586.586 0 010 1.172zm0-2.5h-1.25a.586.586 0 010-1.172h1.25a.586.586 0 010 1.172z"/></g></svg>
