<svg xmlns="http://www.w3.org/2000/svg" width="20" height="20"><path data-name="Caminho 72" d="M11.932 7.5a.624.624 0 01-.352-.108L10 6.317 8.42 7.392a.625.625 0 01-.958-.671l.5-1.961-1.493-1.272a.626.626 0 01.371-1.1l1.887-.107L9.414.41a.624.624 0 011.172 0l.687 1.871 1.888.107a.626.626 0 01.371 1.1l-1.491 1.273.5 1.961a.624.624 0 01-.607.778z" fill="#2e2e2e"/><path data-name="Caminho 73" d="M19.375 15.833h-3.959v3.542a1.93 1.93 0 01-.108.625h4.067a.63.63 0 00.625-.625v-2.917a.63.63 0 00-.625-.625z" fill="#2e2e2e"/><path data-name="Caminho 74" d="M4.583 14.167H.625a.63.63 0 00-.625.625v4.583A.63.63 0 00.625 20h4.067a1.93 1.93 0 01-.108-.625z" fill="#2e2e2e"/><path data-name="Caminho 75" d="M13.541 9.167H6.458a.625.625 0 00-.625.625v9.583a.625.625 0 00.625.625h7.083a.625.625 0 00.625-.625V9.792a.625.625 0 00-.625-.625zm-2.917 6.875a.625.625 0 01-1.25 0v-2.451a.625.625 0 01.417-1.091h.208a.625.625 0 01.625.625z" fill="#2e2e2e"/></svg>