<svg xmlns="http://www.w3.org/2000/svg" width="20" height="17"><g fill="#2e2e2e"><path data-name="Caminho 57" d="M10.002 8.314c1.89 0 3.423-1.861 3.423-4.157S12.925 0 10.002 0 6.579 1.861 6.579 4.157s1.53 4.157 3.423 4.157z"/><path data-name="Caminho 58" d="M16.458 14.494c-.063-4-.586-5.139-4.583-5.861a2.808 2.808 0 01-3.748 0c-3.954.714-4.508 1.836-4.581 5.731-.006.318-.009.335-.01.3v.42s.952 1.918 6.464 1.918 6.464-1.918 6.464-1.918v-.311a2.512 2.512 0 01-.006-.279z"/><path data-name="Caminho 59" d="M14.75 7.572a3.122 3.122 0 002.78-3.376c0-1.865-.409-3.376-2.78-3.376a3.964 3.964 0 00-1.037.123 6.814 6.814 0 01.623 3.215 5.7 5.7 0 01-.854 3.043 2.381 2.381 0 001.268.371z"/><path data-name="Caminho 60" d="M19.994 12.591c-.051-3.248-.476-4.174-3.722-4.76a1.946 1.946 0 01-1.522.582h-.129a4.271 4.271 0 011.746 1.352c.784 1.075.964 2.519 1 4.64 2.184-.432 2.632-1.333 2.632-1.333v-.253a1.948 1.948 0 01-.005-.228z"/><path data-name="Caminho 61" d="M5.25 7.572A2.382 2.382 0 006.515 7.2a5.7 5.7 0 01-.854-3.043A6.815 6.815 0 016.284.942 3.963 3.963 0 005.247.819c-2.371 0-2.78 1.512-2.78 3.376A3.122 3.122 0 005.25 7.572z"/><path data-name="Caminho 62" d="M5.379 8.407H5.25a1.946 1.946 0 01-1.522-.582C.482 8.411.057 9.336.006 12.585A1.972 1.972 0 010 12.81v.253s.448.9 2.632 1.333c.037-2.121.217-3.565 1-4.64a4.271 4.271 0 011.747-1.349z"/></g></svg>