<svg xmlns="http://www.w3.org/2000/svg" width="20" height="18"><path d="M19.583 6.5A.464.464 0 0020 6V2a1.858 1.858 0 00-1.667-2H1.667A1.858 1.858 0 000 2v4a.464.464 0 00.417.5 2.542 2.542 0 010 5A.464.464 0 000 12v4a1.858 1.858 0 001.667 2h16.666A1.858 1.858 0 0020 16v-4a.464.464 0 00-.417-.5 2.542 2.542 0 010-5zm-13.75 9a.464.464 0 01-.417.5.464.464 0 01-.416-.5v-1a.464.464 0 01.417-.5.464.464 0 01.417.5v1zm0-4a.464.464 0 01-.417.5.464.464 0 01-.416-.5v-1a.464.464 0 01.417-.5.464.464 0 01.417.5v1zm0-4a.464.464 0 01-.417.5A.464.464 0 015 7.5v-1a.464.464 0 01.417-.5.464.464 0 01.417.5v1zm0-4a.464.464 0 01-.417.5A.464.464 0 015 3.5V2.375a.464.464 0 01.417-.5.464.464 0 01.417.5V3.5zm8.75 9.5H8.75a.508.508 0 010-1h5.833a.508.508 0 010 1zm0-3.5H8.75a.508.508 0 010-1h5.833a.508.508 0 010 1zm0-3.5H8.75a.508.508 0 010-1h5.833a.508.508 0 010 1z" fill="#2e2e2e"/></svg>